<?xml version="1.0" encoding="UTF-8" standalone="no"?>
<!DOCTYPE svg PUBLIC "-//W3C//DTD SVG 1.1//EN" "http://www.w3.org/Graphics/SVG/1.1/DTD/svg11.dtd">
<svg width="100%" height="100%" viewBox="0 0 128 128" version="1.1" xmlns="http://www.w3.org/2000/svg" xmlns:xlink="http://www.w3.org/1999/xlink" xml:space="preserve" xmlns:serif="http://www.serif.com/" style="fill-rule:evenodd;clip-rule:evenodd;stroke-linejoin:round;stroke-miterlimit:2;">
    <g transform="matrix(1.17273,0,0,1.17273,3.58652,-20.4364)">
        <g transform="matrix(1.03774,0,0,0.970874,-21.1261,-6.15534)">
            <path d="M70,29L115.899,54.75L115.899,106.25L70,132L24.101,106.25L24.101,54.75L70,29Z" style="fill:white;"/>
            <path d="M70,29L115.899,54.75L115.899,106.25L70,132L24.101,106.25L24.101,54.75L70,29ZM30.674,58.997L30.674,102.003L70,124.065L109.326,102.003L109.326,58.997L70,36.935L30.674,58.997Z" style="fill:rgb(231,167,50);"/>
        </g>
        <g transform="matrix(2.45114,0,0,2.45114,-75.3518,-81.0063)">
            <g transform="matrix(22.0305,0,0,22.0305,37.7525,69.9578)">
                <path d="M0.63,-0.424C0.63,-0.345 0.609,-0.281 0.568,-0.232C0.524,-0.181 0.463,-0.155 0.385,-0.155C0.372,-0.155 0.352,-0.156 0.326,-0.157C0.3,-0.158 0.28,-0.159 0.267,-0.159C0.253,-0.159 0.246,-0.153 0.246,-0.141C0.246,-0.126 0.248,-0.104 0.25,-0.074C0.253,-0.045 0.255,-0.022 0.255,-0.008C0.255,0 0.251,0.003 0.245,0.003C0.225,0.003 0.195,0.003 0.155,0.002C0.116,0.001 0.086,0 0.066,0C0.056,0 0.052,-0.005 0.052,-0.014C0.052,-0.05 0.052,-0.105 0.053,-0.177C0.055,-0.249 0.055,-0.304 0.055,-0.34C0.055,-0.442 0.051,-0.549 0.042,-0.662L0.042,-0.669C0.041,-0.675 0.046,-0.679 0.056,-0.68C0.082,-0.683 0.138,-0.685 0.224,-0.685C0.275,-0.685 0.324,-0.684 0.371,-0.683C0.448,-0.681 0.51,-0.657 0.558,-0.61C0.606,-0.563 0.63,-0.501 0.63,-0.424ZM0.435,-0.416C0.435,-0.492 0.398,-0.53 0.324,-0.53C0.272,-0.53 0.245,-0.527 0.242,-0.521C0.24,-0.517 0.239,-0.479 0.239,-0.408C0.239,-0.398 0.239,-0.383 0.24,-0.364C0.241,-0.344 0.241,-0.329 0.241,-0.319C0.241,-0.312 0.271,-0.309 0.329,-0.309C0.4,-0.309 0.435,-0.345 0.435,-0.416Z" style="fill:rgb(52,52,52);fill-rule:nonzero;"/>
            </g>
            <g transform="matrix(22.0305,0,0,22.0305,52.1132,69.9578)">
                <path d="M0.615,-0.11C0.615,-0.105 0.612,-0.098 0.605,-0.09C0.545,-0.019 0.465,0.017 0.366,0.017C0.265,0.017 0.182,-0.018 0.119,-0.087C0.058,-0.154 0.027,-0.239 0.027,-0.341C0.027,-0.44 0.057,-0.524 0.117,-0.593C0.18,-0.665 0.26,-0.701 0.357,-0.701C0.462,-0.701 0.545,-0.669 0.605,-0.604C0.611,-0.597 0.615,-0.59 0.615,-0.585C0.615,-0.579 0.603,-0.556 0.581,-0.516C0.558,-0.476 0.544,-0.454 0.538,-0.449C0.535,-0.447 0.532,-0.445 0.528,-0.445C0.527,-0.445 0.519,-0.452 0.504,-0.465C0.486,-0.48 0.469,-0.493 0.452,-0.501C0.426,-0.514 0.4,-0.521 0.372,-0.521C0.324,-0.521 0.286,-0.503 0.257,-0.467C0.231,-0.434 0.218,-0.393 0.218,-0.344C0.218,-0.295 0.231,-0.253 0.257,-0.22C0.286,-0.183 0.324,-0.165 0.372,-0.165C0.4,-0.165 0.427,-0.171 0.453,-0.184C0.469,-0.192 0.486,-0.203 0.503,-0.218C0.518,-0.23 0.526,-0.236 0.527,-0.236C0.531,-0.236 0.534,-0.235 0.537,-0.231C0.542,-0.225 0.556,-0.205 0.58,-0.17C0.603,-0.134 0.615,-0.114 0.615,-0.11Z" style="fill:rgb(52,52,52);fill-rule:nonzero;"/>
            </g>
        </g>
    </g>
</svg>
