<?xml version="1.0" encoding="UTF-8" standalone="no"?>
<!DOCTYPE svg PUBLIC "-//W3C//DTD SVG 1.1//EN" "http://www.w3.org/Graphics/SVG/1.1/DTD/svg11.dtd">
<svg width="100%" height="100%" viewBox="0 0 256 144" version="1.1" xmlns="http://www.w3.org/2000/svg" xmlns:xlink="http://www.w3.org/1999/xlink" xml:space="preserve" xmlns:serif="http://www.serif.com/" style="fill-rule:evenodd;clip-rule:evenodd;stroke-linejoin:round;stroke-miterlimit:2;">
    <g>
        <g transform="matrix(1.03774,0,0,0.970874,-21.1261,-6.15534)">
            <path d="M70,29L115.899,54.75L115.899,106.25L70,132L24.101,106.25L24.101,54.75L70,29ZM31.81,59.731L31.81,101.269L70,122.694L108.19,101.269L108.19,59.731L70,38.306L31.81,59.731Z" style="fill:rgb(231,167,50);"/>
        </g>
        <g transform="matrix(1.08108,0,0,1,-17.0732,2)">
            <path d="M249,44L101,44L101,96L249,96L249,44ZM106.55,50L106.55,90L243.45,90L243.45,50L106.55,50Z" style="fill:rgb(231,167,50);"/>
        </g>
        <g transform="matrix(2.45114,0,0,2.45114,-75.3518,-81.0063)">
            <g transform="matrix(22.0305,0,0,22.0305,37.7525,69.9578)">
                <path d="M0.63,-0.424C0.63,-0.345 0.609,-0.281 0.568,-0.232C0.524,-0.181 0.463,-0.155 0.385,-0.155C0.372,-0.155 0.352,-0.156 0.326,-0.157C0.3,-0.158 0.28,-0.159 0.267,-0.159C0.253,-0.159 0.246,-0.153 0.246,-0.141C0.246,-0.126 0.248,-0.104 0.25,-0.074C0.253,-0.045 0.255,-0.022 0.255,-0.008C0.255,0 0.251,0.003 0.245,0.003C0.225,0.003 0.195,0.003 0.155,0.002C0.116,0.001 0.086,0 0.066,0C0.056,0 0.052,-0.005 0.052,-0.014C0.052,-0.05 0.052,-0.105 0.053,-0.177C0.055,-0.249 0.055,-0.304 0.055,-0.34C0.055,-0.442 0.051,-0.549 0.042,-0.662L0.042,-0.669C0.041,-0.675 0.046,-0.679 0.056,-0.68C0.082,-0.683 0.138,-0.685 0.224,-0.685C0.275,-0.685 0.324,-0.684 0.371,-0.683C0.448,-0.681 0.51,-0.657 0.558,-0.61C0.606,-0.563 0.63,-0.501 0.63,-0.424ZM0.435,-0.416C0.435,-0.492 0.398,-0.53 0.324,-0.53C0.272,-0.53 0.245,-0.527 0.242,-0.521C0.24,-0.517 0.239,-0.479 0.239,-0.408C0.239,-0.398 0.239,-0.383 0.24,-0.364C0.241,-0.344 0.241,-0.329 0.241,-0.319C0.241,-0.312 0.271,-0.309 0.329,-0.309C0.4,-0.309 0.435,-0.345 0.435,-0.416Z" style="fill:white;fill-rule:nonzero;"/>
            </g>
            <g transform="matrix(22.0305,0,0,22.0305,52.1132,69.9578)">
                <path d="M0.615,-0.11C0.615,-0.105 0.612,-0.098 0.605,-0.09C0.545,-0.019 0.465,0.017 0.366,0.017C0.265,0.017 0.182,-0.018 0.119,-0.087C0.058,-0.154 0.027,-0.239 0.027,-0.341C0.027,-0.44 0.057,-0.524 0.117,-0.593C0.18,-0.665 0.26,-0.701 0.357,-0.701C0.462,-0.701 0.545,-0.669 0.605,-0.604C0.611,-0.597 0.615,-0.59 0.615,-0.585C0.615,-0.579 0.603,-0.556 0.581,-0.516C0.558,-0.476 0.544,-0.454 0.538,-0.449C0.535,-0.447 0.532,-0.445 0.528,-0.445C0.527,-0.445 0.519,-0.452 0.504,-0.465C0.486,-0.48 0.469,-0.493 0.452,-0.501C0.426,-0.514 0.4,-0.521 0.372,-0.521C0.324,-0.521 0.286,-0.503 0.257,-0.467C0.231,-0.434 0.218,-0.393 0.218,-0.344C0.218,-0.295 0.231,-0.253 0.257,-0.22C0.286,-0.183 0.324,-0.165 0.372,-0.165C0.4,-0.165 0.427,-0.171 0.453,-0.184C0.469,-0.192 0.486,-0.203 0.503,-0.218C0.518,-0.23 0.526,-0.236 0.527,-0.236C0.531,-0.236 0.534,-0.235 0.537,-0.231C0.542,-0.225 0.556,-0.205 0.58,-0.17C0.603,-0.134 0.615,-0.114 0.615,-0.11Z" style="fill:white;fill-rule:nonzero;"/>
            </g>
        </g>
        <g transform="matrix(1.30933,0,0,1.22792,-67.3355,-1.87578)">
            <g transform="matrix(38,0,0,38,127.385,73.4447)">
                <path d="M0.494,-0.367C0.543,-0.399 0.575,-0.451 0.575,-0.504C0.575,-0.561 0.554,-0.607 0.511,-0.644C0.469,-0.681 0.417,-0.7 0.356,-0.7L0.059,-0.7L0.059,0L0.385,0C0.444,0 0.496,-0.019 0.539,-0.058C0.582,-0.097 0.604,-0.145 0.604,-0.204C0.604,-0.271 0.565,-0.339 0.494,-0.367L0.494,-0.367ZM0.328,-0.575C0.381,-0.575 0.418,-0.539 0.418,-0.495C0.418,-0.454 0.383,-0.417 0.332,-0.417L0.214,-0.417L0.214,-0.575L0.328,-0.575ZM0.214,-0.137L0.214,-0.301L0.348,-0.301C0.403,-0.301 0.441,-0.266 0.441,-0.219C0.441,-0.172 0.403,-0.137 0.348,-0.137L0.214,-0.137Z" style="fill:rgb(231,167,50);fill-rule:nonzero;"/>
            </g>
            <g transform="matrix(38,0,0,38,150.679,73.4447)">
                <path d="M0.394,-0.166C0.365,-0.134 0.332,-0.118 0.297,-0.118C0.245,-0.118 0.206,-0.157 0.206,-0.226L0.206,-0.506L0.053,-0.506L0.053,-0.209C0.053,-0.065 0.128,0.012 0.237,0.012C0.292,0.012 0.345,-0.013 0.394,-0.064L0.394,0L0.547,0L0.547,-0.506L0.394,-0.506L0.394,-0.166Z" style="fill:rgb(231,167,50);fill-rule:nonzero;"/>
            </g>
            <g transform="matrix(38,0,0,38,173.707,73.4447)">
                <path d="M0.599,-0.525C0.598,-0.573 0.623,-0.591 0.666,-0.591C0.679,-0.591 0.701,-0.587 0.734,-0.578L0.734,-0.696C0.693,-0.706 0.661,-0.711 0.639,-0.711C0.51,-0.712 0.446,-0.651 0.446,-0.526L0.446,-0.506L0.246,-0.506L0.246,-0.525C0.246,-0.569 0.268,-0.591 0.313,-0.591C0.326,-0.591 0.349,-0.587 0.382,-0.578L0.382,-0.696C0.339,-0.706 0.307,-0.711 0.286,-0.711C0.157,-0.712 0.093,-0.651 0.093,-0.526L0.093,-0.506L0.015,-0.506L0.015,-0.381L0.093,-0.381L0.093,0L0.246,0L0.246,-0.381L0.446,-0.381L0.446,0L0.599,0L0.599,-0.381L0.743,-0.381L0.743,-0.506L0.599,-0.506L0.599,-0.525Z" style="fill:rgb(231,167,50);fill-rule:nonzero;"/>
            </g>
            <g transform="matrix(38,0,0,38,202.511,73.4447)">
                <path d="M0.283,-0.517C0.206,-0.517 0.144,-0.492 0.098,-0.442C0.052,-0.393 0.029,-0.33 0.029,-0.253C0.029,-0.18 0.052,-0.117 0.099,-0.066C0.146,-0.015 0.214,0.011 0.303,0.011C0.372,0.011 0.432,-0.004 0.482,-0.033L0.482,-0.156C0.433,-0.125 0.379,-0.11 0.322,-0.11C0.247,-0.11 0.192,-0.144 0.18,-0.211L0.518,-0.211C0.537,-0.406 0.443,-0.517 0.283,-0.517ZM0.282,-0.4C0.333,-0.4 0.369,-0.369 0.374,-0.313L0.183,-0.313C0.195,-0.371 0.228,-0.4 0.282,-0.4Z" style="fill:rgb(231,167,50);fill-rule:nonzero;"/>
            </g>
            <g transform="matrix(38,0,0,38,222.993,73.4447)">
                <path d="M0.28,0.01C0.316,0.01 0.351,0.005 0.386,-0.006L0.386,-0.13C0.364,-0.122 0.343,-0.118 0.323,-0.118C0.278,-0.118 0.256,-0.142 0.256,-0.191L0.256,-0.381L0.384,-0.381L0.384,-0.506L0.256,-0.506L0.256,-0.667L0.105,-0.623L0.105,-0.506L0.015,-0.506L0.015,-0.381L0.103,-0.381L0.103,-0.174C0.103,-0.051 0.171,0.01 0.28,0.01Z" style="fill:rgb(231,167,50);fill-rule:nonzero;"/>
            </g>
        </g>
    </g>
</svg>
