<svg enable-background="new 0 0 59 41" viewBox="0 0 59 41" xmlns="http://www.w3.org/2000/svg"><path d="m14 32h8v9h-8z" fill="#ebba16"/><path d="m28 32h22v9h-22z" fill="#ebba16"/><path d="m3 10h4v6h-4z" fill="#ebba16"/><path d="m3 24h4v4h-4z" fill="#ebba16"/><path d="m7 7h-4c-.552 0-1-.448-1-1s.448-1 1-1h4c.552 0 1 .448 1 1s-.448 1-1 1z" fill="#dc691d"/><path d="m7 21h-4c-.552 0-1-.448-1-1s.448-1 1-1h4c.552 0 1 .448 1 1s-.448 1-1 1z" fill="#dc691d"/><path d="m54.999 6h-47.999v24c0 2.209 1.791 4 4 4h43.999c2.21 0 4.001-1.791 4.001-4.001v-19.998c0-2.21-1.791-4.001-4.001-4.001z" fill="#28384c"/><circle cx="45" cy="20" fill="#162433" r="10"/><path d="m45 24c-2.206 0-4-1.794-4-4s1.794-4 4-4 4 1.794 4 4-1.794 4-4 4zm0-6c-1.103 0-2 .897-2 2s.897 2 2 2 2-.897 2-2-.897-2-2-2z" fill="#fff"/><path d="m27 21h-4c-.552 0-1-.448-1-1s.448-1 1-1h4c.552 0 1 .448 1 1s-.448 1-1 1z" fill="#efc54b"/><path d="m18 21h-11c-.552 0-1-.448-1-1s.448-1 1-1h11c.552 0 1 .448 1 1s-.448 1-1 1z" fill="#efc54b"/><path d="m26.586 27 7 7h2.828l-8.707-8.707c-.187-.188-.442-.293-.707-.293h-19v-10h19c.265 0 .52-.105.707-.293l8.707-8.707h-2.828l-7 7h-19.586v14z" fill="#dd352e"/><path d="m7 28c-.552 0-1-.448-1-1v-26c0-.552.448-1 1-1s1 .448 1 1v26c0 .552-.448 1-1 1z" fill="#e7eced"/><path d="m7 2h-6c-.552 0-1-.448-1-1s.448-1 1-1h6c.552 0 1 .448 1 1s-.448 1-1 1z" fill="#e7eced"/><path d="m45 37c-.552 0-1 .448-1 1v3h2v-3c0-.552-.448-1-1-1z" fill="#f7e6a1"/><path d="m41 37c-.552 0-1 .448-1 1v3h2v-3c0-.552-.448-1-1-1z" fill="#f7e6a1"/><path d="m37 37c-.552 0-1 .448-1 1v3h2v-3c0-.552-.448-1-1-1z" fill="#f7e6a1"/><path d="m33 37c-.552 0-1 .448-1 1v3h2v-3c0-.552-.448-1-1-1z" fill="#f7e6a1"/><path d="m18 37c-.552 0-1 .448-1 1v3h2v-3c0-.552-.448-1-1-1z" fill="#f7e6a1"/><g fill="#fff"><path d="m45.707 10.808c1.591 1.591 2.23 4.841.707 6.364-.39.391-.39 1.024 0 1.414.195.195.451.293.707.293s.512-.098.707-.293c2.062-2.063 1.74-5.707.141-8.137-.807-.25-1.66-.389-2.54-.427-.022.282.062.57.278.786z"/><path d="m52.361 13.247c-.216.184-.361.448-.361.753 0 2.25-1.846 5-4 5-.552 0-1 .448-1 1s.448 1 1 1c2.914 0 5.26-2.799 5.852-5.645-.405-.769-.909-1.474-1.491-2.108z"/><path d="m54.978 20.429c-.282-.023-.57.062-.786.278-.807.807-2.042 1.381-3.302 1.534-1.268.156-2.383-.147-3.061-.827-.391-.391-1.024-.391-1.414 0-.391.39-.391 1.023 0 1.414.951.951 2.284 1.454 3.816 1.454.293 0 .594-.018.901-.056 1.22-.148 2.425-.607 3.423-1.266.248-.804.386-1.654.423-2.531z"/><path d="m51 27c-2.251 0-5-1.846-5-4 0-.552-.448-1-1-1s-1 .448-1 1c0 2.914 2.799 5.26 5.645 5.852.769-.404 1.473-.909 2.108-1.491-.184-.216-.448-.361-.753-.361z"/><path d="m43.586 22.828c.39-.391.39-1.024 0-1.414-.391-.391-1.024-.391-1.414 0-2.062 2.063-1.74 5.707-.141 8.137.807.25 1.66.389 2.54.427.023-.282-.062-.57-.278-.786-1.592-1.591-2.23-4.84-.707-6.364z"/><path d="m42 19c-2.914 0-5.26 2.799-5.852 5.645.404.769.909 1.473 1.491 2.107.216-.183.361-.447.361-.752 0-2.25 1.846-5 4-5 .552 0 1-.448 1-1s-.448-1-1-1z"/><path d="m40.355 11.148c-.769.404-1.473.909-2.107 1.491.183.216.447.361.752.361 2.251 0 5 1.846 5 4 0 .552.448 1 1 1s1-.448 1-1c0-2.914-2.799-5.26-5.645-5.852z"/><path d="m38.869 15.774c-1.22.148-2.425.607-3.423 1.266-.249.804-.387 1.654-.424 2.531.027.002.052.015.079.015.256 0 .512-.098.707-.293.807-.807 2.042-1.381 3.302-1.534 1.268-.154 2.383.148 3.061.827.391.391 1.024.391 1.414 0 .391-.39.391-1.023 0-1.414-1.132-1.134-2.808-1.633-4.716-1.398z"/></g></svg>