<svg viewBox="0 -47 494.448 494" xmlns="http://www.w3.org/2000/svg"><path d="m486.472656 160.222656h-7.976562l-46.144532-154.292968c-1.007812-3.386719-4.121093-5.707032-7.640624-5.707032h-354.976563c-3.519531 0-6.621094 2.320313-7.636719 5.707032l-46.144531 154.292968h-7.976563c-4.410156 0-7.976562 3.585938-7.976562 8v224c0 4.417969 3.566406 8 7.976562 8h478.496094c4.40625 0 7.976563-3.582031 7.976563-8v-224c0-4.414062-3.570313-8-7.976563-8zm0 0" fill="#4b81d1"/><path d="m486.457031 400.222656h-478.464843c-4.40625 0-7.9843755-3.574218-7.9843755-7.984375v-224.03125c0-4.40625 3.5781255-7.984375 7.9843755-7.984375h478.464843c4.40625 0 7.984375 3.578125 7.984375 7.984375v224.023438c.007813 4.417969-3.570312 7.992187-7.984375 7.992187zm0 0" fill="#70a5f4"/><path d="m159.503906 192.222656h-79.75l-47.851562 48v80l47.851562 48h79.75l47.847656-48v-80zm0 0" fill="#d64a49"/><path d="m145 224.222656h-50.742188l-30.457031 30.546875v50.910157l30.457031 30.542968h50.742188l30.449219-30.542968v-50.910157zm0 0" fill="#fcbe56"/><g fill="#b33e3d"><path d="m111.65625 192.222656h15.953125v72h-15.953125zm0 0"/><path d="m111.65625 296.222656h15.953125v72h-15.953125zm0 0"/><path d="m31.902344 272.222656h71.777344v16h-71.777344zm0 0"/><path d="m135.574219 272.222656h71.777343v16h-71.777343zm0 0"/></g><path d="m143.550781 280.222656c0-13.253906-10.710937-24-23.925781-24s-23.929688 10.746094-23.929688 24c0 13.257813 10.714844 24 23.929688 24s23.925781-10.742187 23.925781-24zm0 0" fill="#d64a49"/><path d="m23.929688 184.222656h15.949218v16h-15.949218zm0 0" fill="#4b81d1"/><path d="m23.929688 360.222656h15.949218v16h-15.949218zm0 0" fill="#4b81d1"/><path d="m350.894531 368.222656h-111.648437v-40l15.953125-24h79.753906l15.941406 24zm0 0" fill="#d64a49"/><path d="m263.175781 328.222656h23.929688v16h-23.929688zm0 0" fill="#f2f2f2"/><path d="m303.046875 328.222656h23.929687v16h-23.929687zm0 0" fill="#f2f2f2"/><path d="m271.152344 272.222656h-23.914063c-4.40625 0-7.980469-3.574218-7.980469-7.984375v-64.023437c0-4.40625 3.574219-7.984375 7.980469-7.984375h23.914063zm0 0" fill="#d64a49"/><path d="m271.152344 192.222656h31.894531v80h-31.894531zm0 0" fill="#fcbe56"/><path d="m303.046875 192.222656h31.898437v80h-31.898437zm0 0" fill="#d64a49"/><path d="m334.953125 192.222656h31.894531v80h-31.894531zm0 0" fill="#fcbe56"/><path d="m366.847656 192.222656h31.894532v80h-31.894532zm0 0" fill="#d64a49"/><path d="m422.664062 272.222656h-23.910156v-80h23.910156c4.40625 0 7.984376 3.578125 7.984376 7.984375v64.023438c0 4.417969-3.578126 7.992187-7.984376 7.992187zm0 0" fill="#fcbe56"/><path d="m454.574219 184.222656h15.953125v16h-15.953125zm0 0" fill="#4b81d1"/><path d="m454.574219 360.222656h15.953125v16h-15.953125zm0 0" fill="#4b81d1"/><path d="m430.648438 352.222656h-47.847657v-24l7.976563-8h31.894531l7.976563 8zm0 0" fill="#fcbe56"/><path d="m79.753906 24.222656h15.949219v16h-15.949219zm0 0" fill="#f2f2f2"/><path d="m398.753906 24.222656h15.949219v16h-15.949219zm0 0" fill="#f2f2f2"/><path d="m365.304688 94.910156-5.320313-32c-.640625-3.863281-3.96875-6.6875-7.863281-6.6875h-202.816406c-3.433594 0-6.480469 2.203125-7.570313 5.472656l-10.628906 32c-1.730469 5.175782 2.117187 10.527344 7.558593 10.527344h218.769532c4.925781 0 8.679687-4.4375 7.871094-9.3125zm0 0" fill="#fcbe56"/></svg>