<svg width="513" height="513" xmlns="http://www.w3.org/2000/svg" xmlns:xlink="http://www.w3.org/1999/xlink" overflow="hidden"><defs><clipPath id="clip0"><rect x="384" y="104" width="513" height="513"/></clipPath><clipPath id="clip1"><rect x="427" y="212" width="426" height="296"/></clipPath><clipPath id="clip2"><rect x="427" y="212" width="426" height="296"/></clipPath><clipPath id="clip3"><rect x="427" y="212" width="426" height="296"/></clipPath></defs><g clip-path="url(#clip0)" transform="translate(-384 -104)"><g clip-path="url(#clip1)"><g clip-path="url(#clip2)"><g clip-path="url(#clip3)"><path d="M101.073 231.024 158.829 231.024 158.829 296 101.073 296Z" fill="#EBBA16" transform="matrix(1.00011 0 0 1 427 212)"/><path d="M202.146 231.024 360.976 231.024 360.976 296 202.146 296Z" fill="#EBBA16" transform="matrix(1.00011 0 0 1 427 212)"/><path d="M21.6585 72.1951 50.5366 72.1951 50.5366 115.512 21.6585 115.512Z" fill="#EBBA16" transform="matrix(1.00011 0 0 1 427 212)"/><path d="M21.6585 173.268 50.5366 173.268 50.5366 202.146 21.6585 202.146Z" fill="#EBBA16" transform="matrix(1.00011 0 0 1 427 212)"/><path d="M50.5366 50.5366 21.6585 50.5366C17.6734 50.5366 14.439 47.3022 14.439 43.3171 14.439 39.3319 17.6734 36.0976 21.6585 36.0976L50.5366 36.0976C54.5218 36.0976 57.7561 39.3319 57.7561 43.3171 57.7561 47.3022 54.5218 50.5366 50.5366 50.5366Z" fill="#DC691D" transform="matrix(1.00011 0 0 1 427 212)"/><path d="M50.5366 151.61 21.6585 151.61C17.6734 151.61 14.439 148.375 14.439 144.39 14.439 140.405 17.6734 137.171 21.6585 137.171L50.5366 137.171C54.5218 137.171 57.7561 140.405 57.7561 144.39 57.7561 148.375 54.5218 151.61 50.5366 151.61Z" fill="#DC691D" transform="matrix(1.00011 0 0 1 427 212)"/><path d="M397.066 43.3171 50.5366 43.3171 50.5366 216.585C50.5366 232.533 63.4667 245.463 79.4146 245.463L397.066 245.463C413.021 245.463 425.951 232.533 425.951 216.578L425.951 72.2023C425.951 56.2472 413.021 43.3171 397.066 43.3171Z" fill="#28384C" transform="matrix(1.00011 0 0 1 427 212)"/><path d="M397.073 144.39C397.073 184.263 364.75 216.585 324.878 216.585 285.006 216.585 252.683 184.263 252.683 144.39 252.683 104.518 285.006 72.1951 324.878 72.1951 364.75 72.1951 397.073 104.518 397.073 144.39Z" fill="#162433" transform="matrix(1.00011 0 0 1 427 212)"/><path d="M324.878 173.268C308.952 173.268 296 160.316 296 144.39 296 128.464 308.952 115.512 324.878 115.512 340.804 115.512 353.756 128.464 353.756 144.39 353.756 160.316 340.804 173.268 324.878 173.268ZM324.878 129.951C316.915 129.951 310.439 136.427 310.439 144.39 310.439 152.353 316.915 158.829 324.878 158.829 332.841 158.829 339.317 152.353 339.317 144.39 339.317 136.427 332.841 129.951 324.878 129.951Z" fill="#FFFFFF" transform="matrix(1.00011 0 0 1 427 212)"/><path d="M194.927 151.61 166.049 151.61C162.064 151.61 158.829 148.375 158.829 144.39 158.829 140.405 162.064 137.171 166.049 137.171L194.927 137.171C198.912 137.171 202.146 140.405 202.146 144.39 202.146 148.375 198.912 151.61 194.927 151.61Z" fill="#EFC54B" transform="matrix(1.00011 0 0 1 427 212)"/><path d="M129.951 151.61 50.5366 151.61C46.5514 151.61 43.3171 148.375 43.3171 144.39 43.3171 140.405 46.5514 137.171 50.5366 137.171L129.951 137.171C133.936 137.171 137.171 140.405 137.171 144.39 137.171 148.375 133.936 151.61 129.951 151.61Z" fill="#EFC54B" transform="matrix(1.00011 0 0 1 427 212)"/><path d="M191.938 194.927 242.475 245.463 262.891 245.463 200.031 182.603C198.681 181.246 196.84 180.488 194.927 180.488L57.7561 180.488 57.7561 108.293 194.927 108.293C196.84 108.293 198.681 107.535 200.031 106.177L262.891 43.3171 242.475 43.3171 191.938 93.8537 50.5366 93.8537 50.5366 194.927Z" fill="#DD352E" transform="matrix(1.00011 0 0 1 427 212)"/><path d="M50.5366 202.146C46.5514 202.146 43.3171 198.912 43.3171 194.927L43.3171 7.21951C43.3171 3.23434 46.5514 0 50.5366 0 54.5218 0 57.7561 3.23434 57.7561 7.21951L57.7561 194.927C57.7561 198.912 54.5218 202.146 50.5366 202.146Z" fill="#E7ECED" transform="matrix(1.00011 0 0 1 427 212)"/><path d="M50.5366 14.439 7.21951 14.439C3.23434 14.439 0 11.2047 0 7.21951 0 3.23434 3.23434 0 7.21951 0L50.5366 0C54.5218 0 57.7561 3.23434 57.7561 7.21951 57.7561 11.2047 54.5218 14.439 50.5366 14.439Z" fill="#E7ECED" transform="matrix(1.00011 0 0 1 427 212)"/><path d="M324.878 267.122C320.893 267.122 317.659 270.356 317.659 274.341L317.659 296 332.098 296 332.098 274.341C332.098 270.356 328.863 267.122 324.878 267.122Z" fill="#F7E6A1" transform="matrix(1.00011 0 0 1 427 212)"/><path d="M296 267.122C292.015 267.122 288.78 270.356 288.78 274.341L288.78 296 303.22 296 303.22 274.341C303.22 270.356 299.985 267.122 296 267.122Z" fill="#F7E6A1" transform="matrix(1.00011 0 0 1 427 212)"/><path d="M267.122 267.122C263.137 267.122 259.902 270.356 259.902 274.341L259.902 296 274.341 296 274.341 274.341C274.341 270.356 271.107 267.122 267.122 267.122Z" fill="#F7E6A1" transform="matrix(1.00011 0 0 1 427 212)"/><path d="M238.244 267.122C234.259 267.122 231.024 270.356 231.024 274.341L231.024 296 245.463 296 245.463 274.341C245.463 270.356 242.229 267.122 238.244 267.122Z" fill="#F7E6A1" transform="matrix(1.00011 0 0 1 427 212)"/><path d="M129.951 267.122C125.966 267.122 122.732 270.356 122.732 274.341L122.732 296 137.171 296 137.171 274.341C137.171 270.356 133.936 267.122 129.951 267.122Z" fill="#F7E6A1" transform="matrix(1.00011 0 0 1 427 212)"/><path d="M329.982 78.0285C341.468 89.5147 346.082 112.978 335.086 123.973 332.271 126.796 332.271 131.366 335.086 134.182 336.494 135.59 338.342 136.297 340.191 136.297 342.039 136.297 343.887 135.59 345.295 134.182 360.181 119.288 357.857 92.9801 346.313 75.4367 340.487 73.6318 334.328 72.6283 327.975 72.354 327.816 74.3899 328.423 76.4691 329.982 78.0285Z" fill="#FFFFFF" transform="matrix(1.00011 0 0 1 427 212)"/><path d="M378.021 95.6369C376.461 96.9653 375.415 98.8712 375.415 101.073 375.415 117.317 362.087 137.171 346.537 137.171 342.551 137.171 339.317 140.405 339.317 144.39 339.317 148.375 342.551 151.61 346.537 151.61 367.574 151.61 384.511 131.402 388.785 110.856 385.861 105.304 382.223 100.214 378.021 95.6369Z" fill="#FFFFFF" transform="matrix(1.00011 0 0 1 427 212)"/><path d="M396.914 147.487C394.878 147.321 392.799 147.935 391.24 149.494 385.414 155.321 376.498 159.465 367.401 160.569 358.247 161.695 350.197 159.508 345.302 154.599 342.479 151.776 337.909 151.776 335.094 154.599 332.271 157.414 332.271 161.984 335.094 164.807 341.959 171.673 351.583 175.304 362.643 175.304 364.759 175.304 366.932 175.174 369.148 174.9 377.956 173.831 386.655 170.518 393.86 165.76 395.651 159.956 396.647 153.819 396.914 147.487Z" fill="#FFFFFF" transform="matrix(1.00011 0 0 1 427 212)"/><path d="M368.195 194.927C351.944 194.927 332.098 181.6 332.098 166.049 332.098 162.064 328.863 158.829 324.878 158.829 320.893 158.829 317.659 162.064 317.659 166.049 317.659 187.086 337.866 204.023 358.413 208.297 363.964 205.381 369.047 201.735 373.631 197.533 372.303 195.974 370.397 194.927 368.195 194.927Z" fill="#FFFFFF" transform="matrix(1.00011 0 0 1 427 212)"/><path d="M314.67 164.807C317.485 161.984 317.485 157.414 314.67 154.599 311.847 151.776 307.277 151.776 304.461 154.599 289.575 169.492 291.899 195.8 303.443 213.344 309.269 215.149 315.428 216.152 321.781 216.427 321.947 214.391 321.333 212.311 319.774 210.752 308.28 199.266 303.674 175.81 314.67 164.807Z" fill="#FFFFFF" transform="matrix(1.00011 0 0 1 427 212)"/><path d="M303.22 137.171C282.182 137.171 265.245 157.378 260.971 177.925 263.888 183.477 267.533 188.559 271.735 193.136 273.295 191.815 274.341 189.909 274.341 187.707 274.341 171.463 287.669 151.61 303.22 151.61 307.205 151.61 310.439 148.375 310.439 144.39 310.439 140.405 307.205 137.171 303.22 137.171Z" fill="#FFFFFF" transform="matrix(1.00011 0 0 1 427 212)"/><path d="M291.343 80.4831C285.792 83.3998 280.709 87.0457 276.132 91.2474 277.453 92.8068 279.359 93.8537 281.561 93.8537 297.812 93.8537 317.659 107.181 317.659 122.732 317.659 126.717 320.893 129.951 324.878 129.951 328.863 129.951 332.098 126.717 332.098 122.732 332.098 101.694 311.89 84.7571 291.343 80.4831Z" fill="#FFFFFF" transform="matrix(1.00011 0 0 1 427 212)"/><path d="M280.615 113.881C271.807 114.949 263.108 118.263 255.903 123.02 254.105 128.825 253.109 134.962 252.842 141.293 253.037 141.308 253.217 141.401 253.412 141.401 255.26 141.401 257.108 140.694 258.516 139.286 264.342 133.46 273.259 129.316 282.355 128.211 291.509 127.1 299.559 129.28 304.454 134.182 307.277 137.005 311.847 137.005 314.662 134.182 317.485 131.366 317.485 126.796 314.662 123.973 306.49 115.787 294.39 112.184 280.615 113.881Z" fill="#FFFFFF" transform="matrix(1.00011 0 0 1 427 212)"/></g></g></g></g></svg>